<?xml version="1.0" encoding="UTF-8"?>
<svg xmlns="http://www.w3.org/2000/svg" viewBox="0 0 24 24">
  <rect width="24" height="24" fill="#02569B"/>
  <g fill="none" stroke="#FFFFFF" stroke-width="1.5" stroke-linecap="round" stroke-linejoin="round">
    <path d="M6.79289 6.79289C6.5 7.08579 6.5 7.55719 6.5 8.5C6.5 9.44281 6.5 9.91421 6.79289 10.2071C7.08579 10.5 7.55719 10.5 8.5 10.5C9.44281 10.5 9.91421 10.5 10.2071 10.2071C10.5 9.91421 10.5 9.44281 10.5 8.5C10.5 7.55719 10.5 7.08579 10.2071 6.79289C9.91421 6.5 9.44281 6.5 8.5 6.5C7.55719 6.5 7.08579 6.5 6.79289 6.79289Z"/>
    <path d="M13.5 10.5C14.4428 10.5 14.9142 10.5 15.2071 10.2071C15.5 9.91421 15.5 9.44281 15.5 8.5C15.5 7.55719 15.5 7.08579 15.7929 6.79289C16.0858 6.5 16.5572 6.5 17.5 6.5"/>
    <path d="M6.5 13.5H8.5C9.44281 13.5 9.91421 13.5 10.2071 13.7929C10.5 14.0858 10.5 14.5572 10.5 15.5V17.5"/>
    <path d="M6.875 17.25H6.75M7 17.25C7 17.3881 6.88807 17.5 6.75 17.5C6.61193 17.5 6.5 17.3881 6.5 17.25C6.5 17.1119 6.61193 17 6.75 17C6.88807 17 7 17.1119 7 17.25Z"/>
    <path d="M13.7929 13.7929C13.5 14.0858 13.5 14.5572 13.5 15.5C13.5 16.4428 13.5 16.9142 13.7929 17.2071C14.0858 17.5 14.5572 17.5 15.5 17.5C16.4428 17.5 16.9142 17.5 17.2071 17.2071C17.5 16.9142 17.5 16.4428 17.5 15.5C17.5 14.5572 17.5 14.0858 17.2071 13.7929C16.9142 13.5 16.4428 13.5 15.5 13.5C14.5572 13.5 14.0858 13.5 13.7929 13.7929Z"/>
    <path d="M6.5 21.5C6.03563 21.5 5.80344 21.5 5.60812 21.478C3.98545 21.2952 2.70484 20.0145 2.52201 18.3919C2.5 18.1966 2.5 17.9644 2.5 17.5M17.5 21.5C17.9644 21.5 18.1966 21.5 18.3919 21.478C20.0145 21.2952 21.2952 20.0145 21.478 18.3919C21.5 18.1966 21.5 17.9644 21.5 17.5M6.5 2.5C6.03563 2.5 5.80344 2.5 5.60812 2.52201C3.98545 2.70484 2.70484 3.98545 2.52201 5.60812C2.5 5.80344 2.5 6.03563 2.5 6.5M17.5 2.5C17.9644 2.5 18.1966 2.5 18.3919 2.52201C20.0145 2.70484 21.2952 3.98545 21.478 5.60812C21.5 5.80344 21.5 6.03563 21.5 6.5"/>
  </g>
</svg>
